<?xml version="1.0" encoding="UTF-8" standalone="no"?>
<!DOCTYPE svg PUBLIC "-//W3C//DTD SVG 1.1//EN"
 "http://www.w3.org/Graphics/SVG/1.1/DTD/svg11.dtd">
<!-- Generated by graphviz version 12.2.1 (0)
 -->
<!-- Title: G Pages: 1 -->
<svg width="2471pt" height="643pt"
 viewBox="0.00 0.00 2470.70 642.91" xmlns="http://www.w3.org/2000/svg" xmlns:xlink="http://www.w3.org/1999/xlink">
<g id="graph0" class="graph" transform="scale(1 1) rotate(0) translate(21.6 621.31)">
<title>G</title>
<polygon fill="#111111" stroke="none" points="-21.6,21.6 -21.6,-621.31 2449.1,-621.31 2449.1,21.6 -21.6,21.6"/>
<!-- ../../rest/lib/RestClient.d.ts -->
<g id="node1" class="node">
<title>../../rest/lib/RestClient.d.ts</title>
<path fill="none" stroke="#cfffac" d="M1354.33,-143.71C1354.33,-143.71 1200.42,-143.71 1200.42,-143.71 1196.46,-143.71 1192.5,-139.75 1192.5,-135.79 1192.5,-135.79 1192.5,-127.88 1192.5,-127.88 1192.5,-123.92 1196.46,-119.96 1200.42,-119.96 1200.42,-119.96 1354.33,-119.96 1354.33,-119.96 1358.29,-119.96 1362.25,-123.92 1362.25,-127.88 1362.25,-127.88 1362.25,-135.79 1362.25,-135.79 1362.25,-139.75 1358.29,-143.71 1354.33,-143.71"/>
<text text-anchor="middle" x="1277.38" y="-126.41" font-family="Arial" font-size="14.00" fill="#cfffac">../../rest/lib/RestClient.d.ts</text>
</g>
<!-- ../../rest/lib/YurbaRestClient.d.ts -->
<g id="node2" class="node">
<title>../../rest/lib/YurbaRestClient.d.ts</title>
<path fill="none" stroke="#c6c5fe" d="M828.83,-185.71C828.83,-185.71 639.67,-185.71 639.67,-185.71 635.71,-185.71 631.75,-181.75 631.75,-177.79 631.75,-177.79 631.75,-169.88 631.75,-169.88 631.75,-165.92 635.71,-161.96 639.67,-161.96 639.67,-161.96 828.83,-161.96 828.83,-161.96 832.79,-161.96 836.75,-165.92 836.75,-169.88 836.75,-169.88 836.75,-177.79 836.75,-177.79 836.75,-181.75 832.79,-185.71 828.83,-185.71"/>
<text text-anchor="middle" x="734.25" y="-168.41" font-family="Arial" font-size="14.00" fill="#c6c5fe">../../rest/lib/YurbaRestClient.d.ts</text>
</g>
<!-- ../../rest/lib/resources/AuthResource.d.ts -->
<g id="node3" class="node">
<title>../../rest/lib/resources/AuthResource.d.ts</title>
<path fill="none" stroke="#c6c5fe" d="M1134.71,-143.71C1134.71,-143.71 894.54,-143.71 894.54,-143.71 890.58,-143.71 886.62,-139.75 886.62,-135.79 886.62,-135.79 886.62,-127.88 886.62,-127.88 886.62,-123.92 890.58,-119.96 894.54,-119.96 894.54,-119.96 1134.71,-119.96 1134.71,-119.96 1138.67,-119.96 1142.62,-123.92 1142.62,-127.88 1142.62,-127.88 1142.62,-135.79 1142.62,-135.79 1142.62,-139.75 1138.67,-143.71 1134.71,-143.71"/>
<text text-anchor="middle" x="1014.62" y="-126.41" font-family="Arial" font-size="14.00" fill="#c6c5fe">../../rest/lib/resources/AuthResource.d.ts</text>
</g>
<!-- ../../rest/lib/YurbaRestClient.d.ts&#45;&gt;../../rest/lib/resources/AuthResource.d.ts -->
<g id="edge1" class="edge">
<title>../../rest/lib/YurbaRestClient.d.ts&#45;&gt;../../rest/lib/resources/AuthResource.d.ts</title>
<path fill="none" stroke="#757575" d="M815.95,-161.46C834.6,-158.61 854.36,-155.61 872.75,-152.83 887.8,-150.56 903.76,-148.17 919.32,-145.84"/>
<polygon fill="#757575" stroke="#757575" points="919.69,-149.33 929.06,-144.39 918.66,-142.4 919.69,-149.33"/>
</g>
<!-- ../../rest/lib/resources/DialogResource.d.ts -->
<g id="node4" class="node">
<title>../../rest/lib/resources/DialogResource.d.ts</title>
<path fill="none" stroke="#c6c5fe" d="M1139.96,-101.71C1139.96,-101.71 889.29,-101.71 889.29,-101.71 885.33,-101.71 881.38,-97.75 881.38,-93.79 881.38,-93.79 881.38,-85.88 881.38,-85.88 881.38,-81.92 885.33,-77.96 889.29,-77.96 889.29,-77.96 1139.96,-77.96 1139.96,-77.96 1143.92,-77.96 1147.88,-81.92 1147.88,-85.88 1147.88,-85.88 1147.88,-93.79 1147.88,-93.79 1147.88,-97.75 1143.92,-101.71 1139.96,-101.71"/>
<text text-anchor="middle" x="1014.62" y="-84.41" font-family="Arial" font-size="14.00" fill="#c6c5fe">../../rest/lib/resources/DialogResource.d.ts</text>
</g>
<!-- ../../rest/lib/YurbaRestClient.d.ts&#45;&gt;../../rest/lib/resources/DialogResource.d.ts -->
<g id="edge2" class="edge">
<title>../../rest/lib/YurbaRestClient.d.ts&#45;&gt;../../rest/lib/resources/DialogResource.d.ts</title>
<path fill="none" stroke="#757575" d="M756.89,-161.59C783.37,-147.16 829.96,-123.55 872.75,-110.83 880.66,-108.48 888.9,-106.39 897.26,-104.52"/>
<polygon fill="#757575" stroke="#757575" points="897.74,-108 906.8,-102.51 896.3,-101.15 897.74,-108"/>
</g>
<!-- ../../rest/lib/resources/MediaResource.d.ts -->
<g id="node5" class="node">
<title>../../rest/lib/resources/MediaResource.d.ts</title>
<path fill="none" stroke="#c6c5fe" d="M1139.58,-227.71C1139.58,-227.71 889.67,-227.71 889.67,-227.71 885.71,-227.71 881.75,-223.75 881.75,-219.79 881.75,-219.79 881.75,-211.88 881.75,-211.88 881.75,-207.92 885.71,-203.96 889.67,-203.96 889.67,-203.96 1139.58,-203.96 1139.58,-203.96 1143.54,-203.96 1147.5,-207.92 1147.5,-211.88 1147.5,-211.88 1147.5,-219.79 1147.5,-219.79 1147.5,-223.75 1143.54,-227.71 1139.58,-227.71"/>
<text text-anchor="middle" x="1014.62" y="-210.41" font-family="Arial" font-size="14.00" fill="#c6c5fe">../../rest/lib/resources/MediaResource.d.ts</text>
</g>
<!-- ../../rest/lib/YurbaRestClient.d.ts&#45;&gt;../../rest/lib/resources/MediaResource.d.ts -->
<g id="edge3" class="edge">
<title>../../rest/lib/YurbaRestClient.d.ts&#45;&gt;../../rest/lib/resources/MediaResource.d.ts</title>
<path fill="none" stroke="#757575" d="M815.95,-186.21C834.6,-189.05 854.36,-192.06 872.75,-194.83 887.8,-197.1 903.76,-199.5 919.32,-201.82"/>
<polygon fill="#757575" stroke="#757575" points="918.66,-205.26 929.06,-203.28 919.69,-198.34 918.66,-205.26"/>
</g>
<!-- ../../rest/lib/resources/MessageResource.d.ts -->
<g id="node6" class="node">
<title>../../rest/lib/resources/MessageResource.d.ts</title>
<path fill="none" stroke="#c6c5fe" d="M1148.58,-59.71C1148.58,-59.71 880.67,-59.71 880.67,-59.71 876.71,-59.71 872.75,-55.75 872.75,-51.79 872.75,-51.79 872.75,-43.88 872.75,-43.88 872.75,-39.92 876.71,-35.96 880.67,-35.96 880.67,-35.96 1148.58,-35.96 1148.58,-35.96 1152.54,-35.96 1156.5,-39.92 1156.5,-43.88 1156.5,-43.88 1156.5,-51.79 1156.5,-51.79 1156.5,-55.75 1152.54,-59.71 1148.58,-59.71"/>
<text text-anchor="middle" x="1014.62" y="-42.41" font-family="Arial" font-size="14.00" fill="#c6c5fe">../../rest/lib/resources/MessageResource.d.ts</text>
</g>
<!-- ../../rest/lib/YurbaRestClient.d.ts&#45;&gt;../../rest/lib/resources/MessageResource.d.ts -->
<g id="edge4" class="edge">
<title>../../rest/lib/YurbaRestClient.d.ts&#45;&gt;../../rest/lib/resources/MessageResource.d.ts</title>
<path fill="none" stroke="#757575" d="M746.78,-161.64C768.85,-139.13 819.64,-91.29 872.75,-68.83 877.42,-66.86 882.25,-65.06 887.19,-63.43"/>
<polygon fill="#757575" stroke="#757575" points="888.11,-66.81 896.67,-60.56 886.09,-60.11 888.11,-66.81"/>
</g>
<!-- ../../rest/lib/resources/PostResource.d.ts -->
<g id="node7" class="node">
<title>../../rest/lib/resources/PostResource.d.ts</title>
<path fill="none" stroke="#c6c5fe" d="M1134.33,-185.71C1134.33,-185.71 894.92,-185.71 894.92,-185.71 890.96,-185.71 887,-181.75 887,-177.79 887,-177.79 887,-169.88 887,-169.88 887,-165.92 890.96,-161.96 894.92,-161.96 894.92,-161.96 1134.33,-161.96 1134.33,-161.96 1138.29,-161.96 1142.25,-165.92 1142.25,-169.88 1142.25,-169.88 1142.25,-177.79 1142.25,-177.79 1142.25,-181.75 1138.29,-185.71 1134.33,-185.71"/>
<text text-anchor="middle" x="1014.62" y="-168.41" font-family="Arial" font-size="14.00" fill="#c6c5fe">../../rest/lib/resources/PostResource.d.ts</text>
</g>
<!-- ../../rest/lib/YurbaRestClient.d.ts&#45;&gt;../../rest/lib/resources/PostResource.d.ts -->
<g id="edge5" class="edge">
<title>../../rest/lib/YurbaRestClient.d.ts&#45;&gt;../../rest/lib/resources/PostResource.d.ts</title>
<path fill="none" stroke="#757575" d="M836.93,-173.83C849.42,-173.83 862.35,-173.83 875.27,-173.83"/>
<polygon fill="#757575" stroke="#757575" points="875.1,-177.33 885.1,-173.83 875.1,-170.33 875.1,-177.33"/>
</g>
<!-- ../../rest/lib/resources/UserResource.d.ts -->
<g id="node8" class="node">
<title>../../rest/lib/resources/UserResource.d.ts</title>
<path fill="none" stroke="#c6c5fe" d="M1135.08,-269.71C1135.08,-269.71 894.17,-269.71 894.17,-269.71 890.21,-269.71 886.25,-265.75 886.25,-261.79 886.25,-261.79 886.25,-253.88 886.25,-253.88 886.25,-249.92 890.21,-245.96 894.17,-245.96 894.17,-245.96 1135.08,-245.96 1135.08,-245.96 1139.04,-245.96 1143,-249.92 1143,-253.88 1143,-253.88 1143,-261.79 1143,-261.79 1143,-265.75 1139.04,-269.71 1135.08,-269.71"/>
<text text-anchor="middle" x="1014.62" y="-252.41" font-family="Arial" font-size="14.00" fill="#c6c5fe">../../rest/lib/resources/UserResource.d.ts</text>
</g>
<!-- ../../rest/lib/YurbaRestClient.d.ts&#45;&gt;../../rest/lib/resources/UserResource.d.ts -->
<g id="edge6" class="edge">
<title>../../rest/lib/YurbaRestClient.d.ts&#45;&gt;../../rest/lib/resources/UserResource.d.ts</title>
<path fill="none" stroke="#757575" d="M756.89,-186.08C783.37,-200.51 829.96,-224.12 872.75,-236.83 880.66,-239.18 888.9,-241.28 897.26,-243.14"/>
<polygon fill="#757575" stroke="#757575" points="896.3,-246.52 906.8,-245.15 897.74,-239.67 896.3,-246.52"/>
</g>
<!-- ../../rest/lib/resources/AuthResource.d.ts&#45;&gt;../../rest/lib/RestClient.d.ts -->
<g id="edge9" class="edge">
<title>../../rest/lib/resources/AuthResource.d.ts&#45;&gt;../../rest/lib/RestClient.d.ts</title>
<path fill="none" stroke="#757575" d="M1142.94,-131.83C1155.71,-131.83 1168.52,-131.83 1180.88,-131.83"/>
<polygon fill="#757575" stroke="#757575" points="1180.57,-135.33 1190.57,-131.83 1180.57,-128.33 1180.57,-135.33"/>
</g>
<!-- ../../rest/lib/resources/DialogResource.d.ts&#45;&gt;../../rest/lib/RestClient.d.ts -->
<g id="edge10" class="edge">
<title>../../rest/lib/resources/DialogResource.d.ts&#45;&gt;../../rest/lib/RestClient.d.ts</title>
<path fill="none" stroke="#757575" d="M1100.98,-102.2C1119.31,-104.96 1138.56,-107.93 1156.5,-110.83 1169.45,-112.93 1183.18,-115.25 1196.54,-117.56"/>
<polygon fill="#757575" stroke="#757575" points="1195.7,-120.96 1206.16,-119.23 1196.9,-114.07 1195.7,-120.96"/>
</g>
<!-- ../../rest/lib/resources/MediaResource.d.ts&#45;&gt;../../rest/lib/RestClient.d.ts -->
<g id="edge11" class="edge">
<title>../../rest/lib/resources/MediaResource.d.ts&#45;&gt;../../rest/lib/RestClient.d.ts</title>
<path fill="none" stroke="#757575" d="M1123.79,-203.52C1134.96,-201.12 1146.04,-198.25 1156.5,-194.83 1189.59,-184.02 1224.51,-164.63 1248.07,-150.21"/>
<polygon fill="#757575" stroke="#757575" points="1249.82,-153.24 1256.46,-144.98 1246.12,-147.31 1249.82,-153.24"/>
</g>
<!-- ../../types/dist/index.d.ts -->
<g id="node10" class="node">
<title>../../types/dist/index.d.ts</title>
<path fill="none" stroke="#c6c5fe" d="M1347.96,-347.71C1347.96,-347.71 1206.79,-347.71 1206.79,-347.71 1202.83,-347.71 1198.88,-343.75 1198.88,-339.79 1198.88,-339.79 1198.88,-331.88 1198.88,-331.88 1198.88,-327.92 1202.83,-323.96 1206.79,-323.96 1206.79,-323.96 1347.96,-323.96 1347.96,-323.96 1351.92,-323.96 1355.88,-327.92 1355.88,-331.88 1355.88,-331.88 1355.88,-339.79 1355.88,-339.79 1355.88,-343.75 1351.92,-347.71 1347.96,-347.71"/>
<text text-anchor="middle" x="1277.38" y="-330.41" font-family="Arial" font-size="14.00" fill="#c6c5fe">../../types/dist/index.d.ts</text>
</g>
<!-- ../../rest/lib/resources/MediaResource.d.ts&#45;&gt;../../types/dist/index.d.ts -->
<g id="edge12" class="edge">
<title>../../rest/lib/resources/MediaResource.d.ts&#45;&gt;../../types/dist/index.d.ts</title>
<path fill="none" stroke="#757575" d="M1132.38,-228.1C1140.7,-230.53 1148.82,-233.41 1156.5,-236.83 1197.85,-255.26 1236.48,-292.04 1258.2,-315.21"/>
<polygon fill="#757575" stroke="#757575" points="1255.56,-317.52 1264.9,-322.53 1260.73,-312.79 1255.56,-317.52"/>
</g>
<!-- ../../rest/lib/resources/MessageResource.d.ts&#45;&gt;../../rest/lib/RestClient.d.ts -->
<g id="edge13" class="edge">
<title>../../rest/lib/resources/MessageResource.d.ts&#45;&gt;../../rest/lib/RestClient.d.ts</title>
<path fill="none" stroke="#757575" d="M1123.79,-60.15C1134.96,-62.55 1146.04,-65.41 1156.5,-68.83 1189.59,-79.65 1224.51,-99.03 1248.07,-113.45"/>
<polygon fill="#757575" stroke="#757575" points="1246.12,-116.36 1256.46,-118.68 1249.82,-110.42 1246.12,-116.36"/>
</g>
<!-- ../../rest/lib/resources/PostResource.d.ts&#45;&gt;../../rest/lib/RestClient.d.ts -->
<g id="edge14" class="edge">
<title>../../rest/lib/resources/PostResource.d.ts&#45;&gt;../../rest/lib/RestClient.d.ts</title>
<path fill="none" stroke="#757575" d="M1100.98,-161.47C1119.31,-158.71 1138.56,-155.74 1156.5,-152.83 1169.45,-150.73 1183.18,-148.42 1196.54,-146.11"/>
<polygon fill="#757575" stroke="#757575" points="1196.9,-149.6 1206.16,-144.44 1195.7,-142.7 1196.9,-149.6"/>
</g>
<!-- ../../rest/lib/resources/UserResource.d.ts&#45;&gt;../../rest/lib/RestClient.d.ts -->
<g id="edge15" class="edge">
<title>../../rest/lib/resources/UserResource.d.ts&#45;&gt;../../rest/lib/RestClient.d.ts</title>
<path fill="none" stroke="#757575" d="M1133.59,-245.48C1141.5,-243.07 1149.21,-240.21 1156.5,-236.83 1199.24,-217.04 1238.15,-177.14 1259.42,-152.62"/>
<polygon fill="#757575" stroke="#757575" points="1261.91,-155.1 1265.7,-145.21 1256.57,-150.58 1261.91,-155.1"/>
</g>
<!-- ../../rest/lib/resources/UserResource.d.ts&#45;&gt;../../types/dist/index.d.ts -->
<g id="edge16" class="edge">
<title>../../rest/lib/resources/UserResource.d.ts&#45;&gt;../../types/dist/index.d.ts</title>
<path fill="none" stroke="#757575" d="M1099.81,-270.15C1118.66,-273.79 1138.42,-278.32 1156.5,-283.83 1186.42,-292.95 1218.88,-307.34 1242.47,-318.66"/>
<polygon fill="#757575" stroke="#757575" points="1240.76,-321.72 1251.29,-322.96 1243.83,-315.43 1240.76,-321.72"/>
</g>
<!-- ../../rest/lib/index.d.ts -->
<g id="node9" class="node">
<title>../../rest/lib/index.d.ts</title>
<path fill="none" stroke="#c6c5fe" d="M587.83,-187.71C587.83,-187.71 463.92,-187.71 463.92,-187.71 459.96,-187.71 456,-183.75 456,-179.79 456,-179.79 456,-171.88 456,-171.88 456,-167.92 459.96,-163.96 463.92,-163.96 463.92,-163.96 587.83,-163.96 587.83,-163.96 591.79,-163.96 595.75,-167.92 595.75,-171.88 595.75,-171.88 595.75,-179.79 595.75,-179.79 595.75,-183.75 591.79,-187.71 587.83,-187.71"/>
<text text-anchor="middle" x="525.88" y="-170.41" font-family="Arial" font-size="14.00" fill="#c6c5fe">../../rest/lib/index.d.ts</text>
</g>
<!-- ../../rest/lib/index.d.ts&#45;&gt;../../rest/lib/RestClient.d.ts -->
<g id="edge7" class="edge">
<title>../../rest/lib/index.d.ts&#45;&gt;../../rest/lib/RestClient.d.ts</title>
<path fill="none" stroke="#757575" d="M546.96,-163.67C598.65,-133.17 741.48,-53.91 872.75,-26.83 996.26,-1.36 1038.46,17.55 1156.5,-26.83 1201.05,-43.58 1239.85,-85.24 1260.52,-110.76"/>
<polygon fill="#757575" stroke="#757575" points="1257.66,-112.78 1266.59,-118.48 1263.16,-108.45 1257.66,-112.78"/>
</g>
<!-- ../../rest/lib/index.d.ts&#45;&gt;../../rest/lib/YurbaRestClient.d.ts -->
<g id="edge8" class="edge">
<title>../../rest/lib/index.d.ts&#45;&gt;../../rest/lib/YurbaRestClient.d.ts</title>
<path fill="none" stroke="#757575" d="M596.17,-175.16C603.89,-175.09 611.89,-175.01 619.98,-174.93"/>
<polygon fill="#757575" stroke="#757575" points="619.97,-178.43 629.94,-174.83 619.91,-171.43 619.97,-178.43"/>
</g>
<!-- ../../types/dist/api/index.d.ts -->
<g id="node12" class="node">
<title>../../types/dist/api/index.d.ts</title>
<path fill="none" stroke="#c6c5fe" d="M1597.21,-557.71C1597.21,-557.71 1434.29,-557.71 1434.29,-557.71 1430.33,-557.71 1426.38,-553.75 1426.38,-549.79 1426.38,-549.79 1426.38,-541.88 1426.38,-541.88 1426.38,-537.92 1430.33,-533.96 1434.29,-533.96 1434.29,-533.96 1597.21,-533.96 1597.21,-533.96 1601.17,-533.96 1605.12,-537.92 1605.12,-541.88 1605.12,-541.88 1605.12,-549.79 1605.12,-549.79 1605.12,-553.75 1601.17,-557.71 1597.21,-557.71"/>
<text text-anchor="middle" x="1515.75" y="-540.41" font-family="Arial" font-size="14.00" fill="#c6c5fe">../../types/dist/api/index.d.ts</text>
</g>
<!-- ../../types/dist/index.d.ts&#45;&gt;../../types/dist/api/index.d.ts -->
<g id="edge31" class="edge">
<title>../../types/dist/index.d.ts&#45;&gt;../../types/dist/api/index.d.ts</title>
<path fill="none" stroke="#757575" d="M1285.79,-347.83C1302.88,-374.74 1347.51,-440.85 1398.25,-482.83 1421.14,-501.77 1450.6,-517.64 1474.17,-528.72"/>
<polygon fill="#757575" stroke="#757575" points="1472.61,-531.85 1483.16,-532.83 1475.53,-525.49 1472.61,-531.85"/>
</g>
<!-- ../../types/dist/attachments/index.d.ts -->
<g id="node13" class="node">
<title>../../types/dist/attachments/index.d.ts</title>
<path fill="none" stroke="#c6c5fe" d="M1625.33,-347.71C1625.33,-347.71 1406.17,-347.71 1406.17,-347.71 1402.21,-347.71 1398.25,-343.75 1398.25,-339.79 1398.25,-339.79 1398.25,-331.88 1398.25,-331.88 1398.25,-327.92 1402.21,-323.96 1406.17,-323.96 1406.17,-323.96 1625.33,-323.96 1625.33,-323.96 1629.29,-323.96 1633.25,-327.92 1633.25,-331.88 1633.25,-331.88 1633.25,-339.79 1633.25,-339.79 1633.25,-343.75 1629.29,-347.71 1625.33,-347.71"/>
<text text-anchor="middle" x="1515.75" y="-330.41" font-family="Arial" font-size="14.00" fill="#c6c5fe">../../types/dist/attachments/index.d.ts</text>
</g>
<!-- ../../types/dist/index.d.ts&#45;&gt;../../types/dist/attachments/index.d.ts -->
<g id="edge32" class="edge">
<title>../../types/dist/index.d.ts&#45;&gt;../../types/dist/attachments/index.d.ts</title>
<path fill="none" stroke="#757575" d="M1356.1,-335.83C1365.98,-335.83 1376.29,-335.83 1386.71,-335.83"/>
<polygon fill="#757575" stroke="#757575" points="1386.52,-339.33 1396.52,-335.83 1386.52,-332.33 1386.52,-339.33"/>
</g>
<!-- ../../types/dist/users/index.d.ts -->
<g id="node15" class="node">
<title>../../types/dist/users/index.d.ts</title>
<path fill="none" stroke="#ff6c60" d="M2166.58,-389.71C2166.58,-389.71 1988.67,-389.71 1988.67,-389.71 1984.71,-389.71 1980.75,-385.75 1980.75,-381.79 1980.75,-381.79 1980.75,-373.88 1980.75,-373.88 1980.75,-369.92 1984.71,-365.96 1988.67,-365.96 1988.67,-365.96 2166.58,-365.96 2166.58,-365.96 2170.54,-365.96 2174.5,-369.92 2174.5,-373.88 2174.5,-373.88 2174.5,-381.79 2174.5,-381.79 2174.5,-385.75 2170.54,-389.71 2166.58,-389.71"/>
<text text-anchor="middle" x="2077.62" y="-372.41" font-family="Arial" font-size="14.00" fill="#ff6c60">../../types/dist/users/index.d.ts</text>
</g>
<!-- ../../types/dist/index.d.ts&#45;&gt;../../types/dist/users/index.d.ts -->
<g id="edge35" class="edge">
<title>../../types/dist/index.d.ts&#45;&gt;../../types/dist/users/index.d.ts</title>
<path fill="none" stroke="#757575" d="M1340.93,-323.51C1460.16,-302.28 1727.45,-265.59 1944.75,-314.83 1982.76,-323.45 2022.64,-344.41 2048.45,-359.79"/>
<polygon fill="#757575" stroke="#757575" points="2046.3,-362.58 2056.66,-364.8 2049.95,-356.6 2046.3,-362.58"/>
</g>
<!-- ../../types/dist/core/index.d.ts -->
<g id="node17" class="node">
<title>../../types/dist/core/index.d.ts</title>
<path fill="none" stroke="#ff6c60" d="M1601.33,-473.71C1601.33,-473.71 1430.17,-473.71 1430.17,-473.71 1426.21,-473.71 1422.25,-469.75 1422.25,-465.79 1422.25,-465.79 1422.25,-457.88 1422.25,-457.88 1422.25,-453.92 1426.21,-449.96 1430.17,-449.96 1430.17,-449.96 1601.33,-449.96 1601.33,-449.96 1605.29,-449.96 1609.25,-453.92 1609.25,-457.88 1609.25,-457.88 1609.25,-465.79 1609.25,-465.79 1609.25,-469.75 1605.29,-473.71 1601.33,-473.71"/>
<text text-anchor="middle" x="1515.75" y="-456.41" font-family="Arial" font-size="14.00" fill="#ff6c60">../../types/dist/core/index.d.ts</text>
</g>
<!-- ../../types/dist/index.d.ts&#45;&gt;../../types/dist/core/index.d.ts -->
<g id="edge33" class="edge">
<title>../../types/dist/index.d.ts&#45;&gt;../../types/dist/core/index.d.ts</title>
<path fill="none" stroke="#757575" d="M1301.47,-348.14C1343.57,-370.59 1432.93,-418.22 1481.55,-444.14"/>
<polygon fill="#757575" stroke="#757575" points="1479.75,-447.15 1490.23,-448.76 1483.05,-440.97 1479.75,-447.15"/>
</g>
<!-- ../../types/dist/messages/index.d.ts -->
<g id="node22" class="node">
<title>../../types/dist/messages/index.d.ts</title>
<path fill="none" stroke="#c6c5fe" d="M1619.33,-267.71C1619.33,-267.71 1412.17,-267.71 1412.17,-267.71 1408.21,-267.71 1404.25,-263.75 1404.25,-259.79 1404.25,-259.79 1404.25,-251.88 1404.25,-251.88 1404.25,-247.92 1408.21,-243.96 1412.17,-243.96 1412.17,-243.96 1619.33,-243.96 1619.33,-243.96 1623.29,-243.96 1627.25,-247.92 1627.25,-251.88 1627.25,-251.88 1627.25,-259.79 1627.25,-259.79 1627.25,-263.75 1623.29,-267.71 1619.33,-267.71"/>
<text text-anchor="middle" x="1515.75" y="-250.41" font-family="Arial" font-size="14.00" fill="#c6c5fe">../../types/dist/messages/index.d.ts</text>
</g>
<!-- ../../types/dist/index.d.ts&#45;&gt;../../types/dist/messages/index.d.ts -->
<g id="edge34" class="edge">
<title>../../types/dist/index.d.ts&#45;&gt;../../types/dist/messages/index.d.ts</title>
<path fill="none" stroke="#757575" d="M1301.69,-323.62C1325.44,-311.58 1363.6,-293.37 1398.25,-281.83 1410.77,-277.67 1424.27,-273.96 1437.48,-270.75"/>
<polygon fill="#757575" stroke="#757575" points="1438.08,-274.21 1447.02,-268.51 1436.48,-267.39 1438.08,-274.21"/>
</g>
<!-- ../../types/dist/api/api.d.ts -->
<g id="node11" class="node">
<title>../../types/dist/api/api.d.ts</title>
<path fill="none" stroke="#cfffac" d="M1881.33,-599.71C1881.33,-599.71 1732.67,-599.71 1732.67,-599.71 1728.71,-599.71 1724.75,-595.75 1724.75,-591.79 1724.75,-591.79 1724.75,-583.88 1724.75,-583.88 1724.75,-579.92 1728.71,-575.96 1732.67,-575.96 1732.67,-575.96 1881.33,-575.96 1881.33,-575.96 1885.29,-575.96 1889.25,-579.92 1889.25,-583.88 1889.25,-583.88 1889.25,-591.79 1889.25,-591.79 1889.25,-595.75 1885.29,-599.71 1881.33,-599.71"/>
<text text-anchor="middle" x="1807" y="-582.41" font-family="Arial" font-size="14.00" fill="#cfffac">../../types/dist/api/api.d.ts</text>
</g>
<!-- ../../types/dist/api/index.d.ts&#45;&gt;../../types/dist/api/api.d.ts -->
<g id="edge17" class="edge">
<title>../../types/dist/api/index.d.ts&#45;&gt;../../types/dist/api/api.d.ts</title>
<path fill="none" stroke="#757575" d="M1601.97,-558.21C1636.86,-563.27 1677.32,-569.15 1712.98,-574.33"/>
<polygon fill="#757575" stroke="#757575" points="1712.47,-577.79 1722.87,-575.76 1713.48,-570.86 1712.47,-577.79"/>
</g>
<!-- ../../types/dist/attachments/photo.d.ts -->
<g id="node14" class="node">
<title>../../types/dist/attachments/photo.d.ts</title>
<path fill="none" stroke="#c6c5fe" d="M1917.33,-347.71C1917.33,-347.71 1696.67,-347.71 1696.67,-347.71 1692.71,-347.71 1688.75,-343.75 1688.75,-339.79 1688.75,-339.79 1688.75,-331.88 1688.75,-331.88 1688.75,-327.92 1692.71,-323.96 1696.67,-323.96 1696.67,-323.96 1917.33,-323.96 1917.33,-323.96 1921.29,-323.96 1925.25,-327.92 1925.25,-331.88 1925.25,-331.88 1925.25,-339.79 1925.25,-339.79 1925.25,-343.75 1921.29,-347.71 1917.33,-347.71"/>
<text text-anchor="middle" x="1807" y="-330.41" font-family="Arial" font-size="14.00" fill="#c6c5fe">../../types/dist/attachments/photo.d.ts</text>
</g>
<!-- ../../types/dist/attachments/index.d.ts&#45;&gt;../../types/dist/attachments/photo.d.ts -->
<g id="edge18" class="edge">
<title>../../types/dist/attachments/index.d.ts&#45;&gt;../../types/dist/attachments/photo.d.ts</title>
<path fill="none" stroke="#757575" d="M1633.57,-335.83C1647.79,-335.83 1662.39,-335.83 1676.79,-335.83"/>
<polygon fill="#757575" stroke="#757575" points="1676.76,-339.33 1686.76,-335.83 1676.76,-332.33 1676.76,-339.33"/>
</g>
<!-- ../../types/dist/attachments/photo.d.ts&#45;&gt;../../types/dist/users/index.d.ts -->
<g id="edge19" class="edge">
<title>../../types/dist/attachments/photo.d.ts&#45;&gt;../../types/dist/users/index.d.ts</title>
<path fill="none" stroke="#757575" d="M1889,-348.2C1907.33,-351.02 1926.71,-354.01 1944.75,-356.83 1958.9,-359.05 1973.89,-361.41 1988.5,-363.73"/>
<polygon fill="#757575" stroke="#757575" points="1987.66,-367.14 1998.09,-365.25 1988.76,-360.23 1987.66,-367.14"/>
</g>
<!-- ../../types/dist/users/online.d.ts -->
<g id="node24" class="node">
<title>../../types/dist/users/online.d.ts</title>
<path fill="none" stroke="#cfffac" d="M2409.83,-431.71C2409.83,-431.71 2228.17,-431.71 2228.17,-431.71 2224.21,-431.71 2220.25,-427.75 2220.25,-423.79 2220.25,-423.79 2220.25,-415.88 2220.25,-415.88 2220.25,-411.92 2224.21,-407.96 2228.17,-407.96 2228.17,-407.96 2409.83,-407.96 2409.83,-407.96 2413.79,-407.96 2417.75,-411.92 2417.75,-415.88 2417.75,-415.88 2417.75,-423.79 2417.75,-423.79 2417.75,-427.75 2413.79,-431.71 2409.83,-431.71"/>
<text text-anchor="middle" x="2319" y="-414.41" font-family="Arial" font-size="14.00" fill="#cfffac">../../types/dist/users/online.d.ts</text>
</g>
<!-- ../../types/dist/users/index.d.ts&#45;&gt;../../types/dist/users/online.d.ts -->
<g id="edge37" class="edge">
<title>../../types/dist/users/index.d.ts&#45;&gt;../../types/dist/users/online.d.ts</title>
<path fill="none" stroke="#757575" d="M2149.15,-390.21C2176.54,-395.01 2208.1,-400.55 2236.46,-405.53"/>
<polygon fill="#757575" stroke="#757575" points="2235.62,-408.93 2246.07,-407.21 2236.83,-402.04 2235.62,-408.93"/>
</g>
<!-- ../../types/dist/users/shortuser.d.ts -->
<g id="node25" class="node">
<title>../../types/dist/users/shortuser.d.ts</title>
<path fill="none" stroke="#ff6c60" d="M2419.58,-389.71C2419.58,-389.71 2218.42,-389.71 2218.42,-389.71 2214.46,-389.71 2210.5,-385.75 2210.5,-381.79 2210.5,-381.79 2210.5,-373.88 2210.5,-373.88 2210.5,-369.92 2214.46,-365.96 2218.42,-365.96 2218.42,-365.96 2419.58,-365.96 2419.58,-365.96 2423.54,-365.96 2427.5,-369.92 2427.5,-373.88 2427.5,-373.88 2427.5,-381.79 2427.5,-381.79 2427.5,-385.75 2423.54,-389.71 2419.58,-389.71"/>
<text text-anchor="middle" x="2319" y="-372.41" font-family="Arial" font-size="14.00" fill="#ff6c60">../../types/dist/users/shortuser.d.ts</text>
</g>
<!-- ../../types/dist/users/index.d.ts&#45;&gt;../../types/dist/users/shortuser.d.ts -->
<g id="edge38" class="edge">
<title>../../types/dist/users/index.d.ts&#45;&gt;../../types/dist/users/shortuser.d.ts</title>
<path fill="none" stroke="#757575" d="M2174.95,-371.2C2182.81,-371.12 2190.81,-371.08 2198.81,-371.08"/>
<polygon fill="#757575" stroke="#757575" points="2198.57,-374.58 2208.58,-371.11 2198.59,-367.58 2198.57,-374.58"/>
</g>
<!-- ../../types/dist/users/user.d.ts -->
<g id="node26" class="node">
<title>../../types/dist/users/user.d.ts</title>
<path fill="none" stroke="#ff6c60" d="M2404.58,-347.71C2404.58,-347.71 2233.42,-347.71 2233.42,-347.71 2229.46,-347.71 2225.5,-343.75 2225.5,-339.79 2225.5,-339.79 2225.5,-331.88 2225.5,-331.88 2225.5,-327.92 2229.46,-323.96 2233.42,-323.96 2233.42,-323.96 2404.58,-323.96 2404.58,-323.96 2408.54,-323.96 2412.5,-327.92 2412.5,-331.88 2412.5,-331.88 2412.5,-339.79 2412.5,-339.79 2412.5,-343.75 2408.54,-347.71 2404.58,-347.71"/>
<text text-anchor="middle" x="2319" y="-330.41" font-family="Arial" font-size="14.00" fill="#ff6c60">../../types/dist/users/user.d.ts</text>
</g>
<!-- ../../types/dist/users/index.d.ts&#45;&gt;../../types/dist/users/user.d.ts -->
<g id="edge39" class="edge">
<title>../../types/dist/users/index.d.ts&#45;&gt;../../types/dist/users/user.d.ts</title>
<path fill="none" stroke="#757575" d="M2119.23,-365.49C2145.3,-359.71 2180.42,-353.05 2213.89,-347.4"/>
<polygon fill="#757575" stroke="#757575" points="2214.38,-350.87 2223.67,-345.77 2213.23,-343.96 2214.38,-350.87"/>
</g>
<!-- ../../types/dist/core/Command.d.ts -->
<g id="node16" class="node">
<title>../../types/dist/core/Command.d.ts</title>
<path fill="none" stroke="#ff6c60" d="M1908.33,-431.71C1908.33,-431.71 1705.67,-431.71 1705.67,-431.71 1701.71,-431.71 1697.75,-427.75 1697.75,-423.79 1697.75,-423.79 1697.75,-415.88 1697.75,-415.88 1697.75,-411.92 1701.71,-407.96 1705.67,-407.96 1705.67,-407.96 1908.33,-407.96 1908.33,-407.96 1912.29,-407.96 1916.25,-411.92 1916.25,-415.88 1916.25,-415.88 1916.25,-423.79 1916.25,-423.79 1916.25,-427.75 1912.29,-431.71 1908.33,-431.71"/>
<text text-anchor="middle" x="1807" y="-414.41" font-family="Arial" font-size="14.00" fill="#ff6c60">../../types/dist/core/Command.d.ts</text>
</g>
<!-- ../../types/dist/core/Command.d.ts&#45;&gt;../../types/dist/core/index.d.ts -->
<g id="edge20" class="edge">
<title>../../types/dist/core/Command.d.ts&#45;&gt;../../types/dist/core/index.d.ts</title>
<path fill="none" stroke="#757575" d="M1757.1,-432.14C1719.88,-438.98 1667.31,-447.05 1620.83,-453.23"/>
<polygon fill="#757575" stroke="#757575" points="1620.43,-449.75 1610.96,-454.52 1621.33,-456.69 1620.43,-449.75"/>
</g>
<!-- ../../types/dist/core/index.d.ts&#45;&gt;../../types/dist/core/Command.d.ts -->
<g id="edge26" class="edge">
<title>../../types/dist/core/index.d.ts&#45;&gt;../../types/dist/core/Command.d.ts</title>
<path fill="none" stroke="#757575" d="M1565.82,-449.49C1598.89,-443.42 1644.02,-436.39 1686.24,-430.56"/>
<polygon fill="#757575" stroke="#757575" points="1686.54,-434.05 1695.98,-429.24 1685.6,-427.12 1686.54,-434.05"/>
</g>
<!-- ../../types/dist/core/Dialog.d.ts -->
<g id="node18" class="node">
<title>../../types/dist/core/Dialog.d.ts</title>
<path fill="none" stroke="#cfffac" d="M1895.58,-557.71C1895.58,-557.71 1718.42,-557.71 1718.42,-557.71 1714.46,-557.71 1710.5,-553.75 1710.5,-549.79 1710.5,-549.79 1710.5,-541.88 1710.5,-541.88 1710.5,-537.92 1714.46,-533.96 1718.42,-533.96 1718.42,-533.96 1895.58,-533.96 1895.58,-533.96 1899.54,-533.96 1903.5,-537.92 1903.5,-541.88 1903.5,-541.88 1903.5,-549.79 1903.5,-549.79 1903.5,-553.75 1899.54,-557.71 1895.58,-557.71"/>
<text text-anchor="middle" x="1807" y="-540.41" font-family="Arial" font-size="14.00" fill="#cfffac">../../types/dist/core/Dialog.d.ts</text>
</g>
<!-- ../../types/dist/core/index.d.ts&#45;&gt;../../types/dist/core/Dialog.d.ts -->
<g id="edge27" class="edge">
<title>../../types/dist/core/index.d.ts&#45;&gt;../../types/dist/core/Dialog.d.ts</title>
<path fill="none" stroke="#757575" d="M1541.2,-474.08C1570.79,-488.4 1622.48,-511.79 1669.25,-524.83 1678.85,-527.51 1688.93,-529.87 1699.08,-531.95"/>
<polygon fill="#757575" stroke="#757575" points="1698.14,-535.33 1708.62,-533.81 1699.48,-528.46 1698.14,-535.33"/>
</g>
<!-- ../../types/dist/core/Message.d.ts -->
<g id="node19" class="node">
<title>../../types/dist/core/Message.d.ts</title>
<path fill="none" stroke="#ff6c60" d="M1904.21,-515.71C1904.21,-515.71 1709.79,-515.71 1709.79,-515.71 1705.83,-515.71 1701.88,-511.75 1701.88,-507.79 1701.88,-507.79 1701.88,-499.88 1701.88,-499.88 1701.88,-495.92 1705.83,-491.96 1709.79,-491.96 1709.79,-491.96 1904.21,-491.96 1904.21,-491.96 1908.17,-491.96 1912.12,-495.92 1912.12,-499.88 1912.12,-499.88 1912.12,-507.79 1912.12,-507.79 1912.12,-511.75 1908.17,-515.71 1904.21,-515.71"/>
<text text-anchor="middle" x="1807" y="-498.41" font-family="Arial" font-size="14.00" fill="#ff6c60">../../types/dist/core/Message.d.ts</text>
</g>
<!-- ../../types/dist/core/index.d.ts&#45;&gt;../../types/dist/core/Message.d.ts -->
<g id="edge28" class="edge">
<title>../../types/dist/core/index.d.ts&#45;&gt;../../types/dist/core/Message.d.ts</title>
<path fill="none" stroke="#757575" d="M1609.46,-468.95C1654.13,-474.71 1706.42,-482.55 1745.83,-489.5"/>
<polygon fill="#757575" stroke="#757575" points="1745.15,-492.93 1755.61,-491.25 1746.39,-486.04 1745.15,-492.93"/>
</g>
<!-- ../../types/dist/core/ReplyTo.d.ts -->
<g id="node20" class="node">
<title>../../types/dist/core/ReplyTo.d.ts</title>
<path fill="none" stroke="#ff6c60" d="M1900.83,-473.71C1900.83,-473.71 1713.17,-473.71 1713.17,-473.71 1709.21,-473.71 1705.25,-469.75 1705.25,-465.79 1705.25,-465.79 1705.25,-457.88 1705.25,-457.88 1705.25,-453.92 1709.21,-449.96 1713.17,-449.96 1713.17,-449.96 1900.83,-449.96 1900.83,-449.96 1904.79,-449.96 1908.75,-453.92 1908.75,-457.88 1908.75,-457.88 1908.75,-465.79 1908.75,-465.79 1908.75,-469.75 1904.79,-473.71 1900.83,-473.71"/>
<text text-anchor="middle" x="1807" y="-456.41" font-family="Arial" font-size="14.00" fill="#ff6c60">../../types/dist/core/ReplyTo.d.ts</text>
</g>
<!-- ../../types/dist/core/index.d.ts&#45;&gt;../../types/dist/core/ReplyTo.d.ts -->
<g id="edge29" class="edge">
<title>../../types/dist/core/index.d.ts&#45;&gt;../../types/dist/core/ReplyTo.d.ts</title>
<path fill="none" stroke="#757575" d="M1609.46,-455.49C1636.19,-455.05 1665.64,-454.97 1693.42,-455.23"/>
<polygon fill="#757575" stroke="#757575" points="1693.25,-458.73 1703.29,-455.34 1693.33,-451.73 1693.25,-458.73"/>
</g>
<!-- ../../types/dist/core/Repost.d.ts -->
<g id="node21" class="node">
<title>../../types/dist/core/Repost.d.ts</title>
<path fill="none" stroke="#c6c5fe" d="M1897.83,-389.71C1897.83,-389.71 1716.17,-389.71 1716.17,-389.71 1712.21,-389.71 1708.25,-385.75 1708.25,-381.79 1708.25,-381.79 1708.25,-373.88 1708.25,-373.88 1708.25,-369.92 1712.21,-365.96 1716.17,-365.96 1716.17,-365.96 1897.83,-365.96 1897.83,-365.96 1901.79,-365.96 1905.75,-369.92 1905.75,-373.88 1905.75,-373.88 1905.75,-381.79 1905.75,-381.79 1905.75,-385.75 1901.79,-389.71 1897.83,-389.71"/>
<text text-anchor="middle" x="1807" y="-372.41" font-family="Arial" font-size="14.00" fill="#c6c5fe">../../types/dist/core/Repost.d.ts</text>
</g>
<!-- ../../types/dist/core/index.d.ts&#45;&gt;../../types/dist/core/Repost.d.ts -->
<g id="edge30" class="edge">
<title>../../types/dist/core/index.d.ts&#45;&gt;../../types/dist/core/Repost.d.ts</title>
<path fill="none" stroke="#757575" d="M1541.2,-449.59C1570.79,-435.27 1622.48,-411.88 1669.25,-398.83 1678.15,-396.35 1687.46,-394.14 1696.85,-392.18"/>
<polygon fill="#757575" stroke="#757575" points="1697.29,-395.66 1706.42,-390.28 1695.93,-388.79 1697.29,-395.66"/>
</g>
<!-- ../../types/dist/core/Message.d.ts&#45;&gt;../../types/dist/users/index.d.ts -->
<g id="edge22" class="edge">
<title>../../types/dist/core/Message.d.ts&#45;&gt;../../types/dist/users/index.d.ts</title>
<path fill="none" stroke="#757575" d="M1912.29,-493.65C1923.49,-490.85 1934.52,-487.31 1944.75,-482.83 1990.6,-462.78 2034.04,-422.66 2057.83,-398.24"/>
<polygon fill="#757575" stroke="#757575" points="2060.26,-400.76 2064.63,-391.11 2055.19,-395.93 2060.26,-400.76"/>
</g>
<!-- ../../types/dist/core/Message.d.ts&#45;&gt;../../types/dist/core/index.d.ts -->
<g id="edge21" class="edge">
<title>../../types/dist/core/Message.d.ts&#45;&gt;../../types/dist/core/index.d.ts</title>
<path fill="none" stroke="#757575" d="M1701.41,-495.16C1659.64,-489.6 1613.03,-482.53 1577.09,-476.2"/>
<polygon fill="#757575" stroke="#757575" points="1577.77,-472.77 1567.31,-474.44 1576.53,-479.66 1577.77,-472.77"/>
</g>
<!-- ../../types/dist/core/ReplyTo.d.ts&#45;&gt;../../types/dist/users/index.d.ts -->
<g id="edge24" class="edge">
<title>../../types/dist/core/ReplyTo.d.ts&#45;&gt;../../types/dist/users/index.d.ts</title>
<path fill="none" stroke="#757575" d="M1909.21,-449.72C1921.31,-447.27 1933.39,-444.34 1944.75,-440.83 1980.98,-429.67 2019.84,-410.07 2045.92,-395.69"/>
<polygon fill="#757575" stroke="#757575" points="2047.6,-398.77 2054.61,-390.82 2044.18,-392.66 2047.6,-398.77"/>
</g>
<!-- ../../types/dist/core/ReplyTo.d.ts&#45;&gt;../../types/dist/core/index.d.ts -->
<g id="edge23" class="edge">
<title>../../types/dist/core/ReplyTo.d.ts&#45;&gt;../../types/dist/core/index.d.ts</title>
<path fill="none" stroke="#757575" d="M1704.8,-468.31C1677.56,-468.66 1648.04,-468.68 1620.65,-468.34"/>
<polygon fill="#757575" stroke="#757575" points="1621.03,-464.85 1610.98,-468.2 1620.93,-471.84 1621.03,-464.85"/>
</g>
<!-- ../../types/dist/core/Repost.d.ts&#45;&gt;../../types/dist/users/index.d.ts -->
<g id="edge25" class="edge">
<title>../../types/dist/core/Repost.d.ts&#45;&gt;../../types/dist/users/index.d.ts</title>
<path fill="none" stroke="#757575" d="M1906.12,-377.83C1926.61,-377.83 1948.31,-377.83 1969.11,-377.83"/>
<polygon fill="#757575" stroke="#757575" points="1969.05,-381.33 1979.05,-377.83 1969.05,-374.33 1969.05,-381.33"/>
</g>
<!-- ../../types/dist/messages/sendMessage.d.ts -->
<g id="node23" class="node">
<title>../../types/dist/messages/sendMessage.d.ts</title>
<path fill="none" stroke="#cfffac" d="M1936.83,-267.71C1936.83,-267.71 1677.17,-267.71 1677.17,-267.71 1673.21,-267.71 1669.25,-263.75 1669.25,-259.79 1669.25,-259.79 1669.25,-251.88 1669.25,-251.88 1669.25,-247.92 1673.21,-243.96 1677.17,-243.96 1677.17,-243.96 1936.83,-243.96 1936.83,-243.96 1940.79,-243.96 1944.75,-247.92 1944.75,-251.88 1944.75,-251.88 1944.75,-259.79 1944.75,-259.79 1944.75,-263.75 1940.79,-267.71 1936.83,-267.71"/>
<text text-anchor="middle" x="1807" y="-250.41" font-family="Arial" font-size="14.00" fill="#cfffac">../../types/dist/messages/sendMessage.d.ts</text>
</g>
<!-- ../../types/dist/messages/index.d.ts&#45;&gt;../../types/dist/messages/sendMessage.d.ts -->
<g id="edge36" class="edge">
<title>../../types/dist/messages/index.d.ts&#45;&gt;../../types/dist/messages/sendMessage.d.ts</title>
<path fill="none" stroke="#757575" d="M1627.34,-255.83C1637.19,-255.83 1647.26,-255.83 1657.36,-255.83"/>
<polygon fill="#757575" stroke="#757575" points="1657.25,-259.33 1667.25,-255.83 1657.25,-252.33 1657.25,-259.33"/>
</g>
<!-- ../../types/dist/users/shortuser.d.ts&#45;&gt;../../types/dist/users/index.d.ts -->
<g id="edge40" class="edge">
<title>../../types/dist/users/shortuser.d.ts&#45;&gt;../../types/dist/users/index.d.ts</title>
<path fill="none" stroke="#757575" d="M2210.09,-384.55C2202.22,-384.59 2194.29,-384.59 2186.42,-384.55"/>
<polygon fill="#757575" stroke="#757575" points="2186.49,-381.05 2176.47,-384.48 2186.44,-388.05 2186.49,-381.05"/>
</g>
<!-- ../../types/dist/users/user.d.ts&#45;&gt;../../types/dist/users/index.d.ts -->
<g id="edge41" class="edge">
<title>../../types/dist/users/user.d.ts&#45;&gt;../../types/dist/users/index.d.ts</title>
<path fill="none" stroke="#757575" d="M2277.39,-348.18C2252.15,-353.78 2218.41,-360.19 2185.91,-365.73"/>
<polygon fill="#757575" stroke="#757575" points="2185.73,-362.21 2176.45,-367.32 2186.89,-369.11 2185.73,-362.21"/>
</g>
<!-- ../../ws/lib/Websocket.d.ts -->
<g id="node27" class="node">
<title>../../ws/lib/Websocket.d.ts</title>
<path fill="none" stroke="#cfffac" d="M810.46,-505.71C810.46,-505.71 658.04,-505.71 658.04,-505.71 654.08,-505.71 650.12,-501.75 650.12,-497.79 650.12,-497.79 650.12,-489.88 650.12,-489.88 650.12,-485.92 654.08,-481.96 658.04,-481.96 658.04,-481.96 810.46,-481.96 810.46,-481.96 814.42,-481.96 818.38,-485.92 818.38,-489.88 818.38,-489.88 818.38,-497.79 818.38,-497.79 818.38,-501.75 814.42,-505.71 810.46,-505.71"/>
<text text-anchor="middle" x="734.25" y="-488.41" font-family="Arial" font-size="14.00" fill="#cfffac">../../ws/lib/Websocket.d.ts</text>
</g>
<!-- ../../ws/lib/index.d.ts -->
<g id="node28" class="node">
<title>../../ws/lib/index.d.ts</title>
<path fill="none" stroke="#c6c5fe" d="M584.83,-505.71C584.83,-505.71 466.92,-505.71 466.92,-505.71 462.96,-505.71 459,-501.75 459,-497.79 459,-497.79 459,-489.88 459,-489.88 459,-485.92 462.96,-481.96 466.92,-481.96 466.92,-481.96 584.83,-481.96 584.83,-481.96 588.79,-481.96 592.75,-485.92 592.75,-489.88 592.75,-489.88 592.75,-497.79 592.75,-497.79 592.75,-501.75 588.79,-505.71 584.83,-505.71"/>
<text text-anchor="middle" x="525.88" y="-488.41" font-family="Arial" font-size="14.00" fill="#c6c5fe">../../ws/lib/index.d.ts</text>
</g>
<!-- ../../ws/lib/index.d.ts&#45;&gt;../../ws/lib/Websocket.d.ts -->
<g id="edge42" class="edge">
<title>../../ws/lib/index.d.ts&#45;&gt;../../ws/lib/Websocket.d.ts</title>
<path fill="none" stroke="#757575" d="M593.02,-493.83C607.54,-493.83 623.18,-493.83 638.57,-493.83"/>
<polygon fill="#757575" stroke="#757575" points="638.2,-497.33 648.2,-493.83 638.2,-490.33 638.2,-497.33"/>
</g>
<!-- ../package.json -->
<g id="node29" class="node">
<title>../package.json</title>
<path fill="none" stroke="#cfffac" d="M372.71,-265.71C372.71,-265.71 281.79,-265.71 281.79,-265.71 277.83,-265.71 273.88,-261.75 273.88,-257.79 273.88,-257.79 273.88,-249.88 273.88,-249.88 273.88,-245.92 277.83,-241.96 281.79,-241.96 281.79,-241.96 372.71,-241.96 372.71,-241.96 376.67,-241.96 380.62,-245.92 380.62,-249.88 380.62,-249.88 380.62,-257.79 380.62,-257.79 380.62,-261.75 376.67,-265.71 372.71,-265.71"/>
<text text-anchor="middle" x="327.25" y="-248.41" font-family="Arial" font-size="14.00" fill="#cfffac">../package.json</text>
</g>
<!-- client/Client.ts -->
<g id="node30" class="node">
<title>client/Client.ts</title>
<path fill="none" stroke="#c6c5fe" d="M190.58,-367.71C190.58,-367.71 106.42,-367.71 106.42,-367.71 102.46,-367.71 98.5,-363.75 98.5,-359.79 98.5,-359.79 98.5,-351.88 98.5,-351.88 98.5,-347.92 102.46,-343.96 106.42,-343.96 106.42,-343.96 190.58,-343.96 190.58,-343.96 194.54,-343.96 198.5,-347.92 198.5,-351.88 198.5,-351.88 198.5,-359.79 198.5,-359.79 198.5,-363.75 194.54,-367.71 190.58,-367.71"/>
<text text-anchor="middle" x="148.5" y="-350.41" font-family="Arial" font-size="14.00" fill="#c6c5fe">client/Client.ts</text>
</g>
<!-- client/Client.ts&#45;&gt;../../rest/lib/index.d.ts -->
<g id="edge43" class="edge">
<title>client/Client.ts&#45;&gt;../../rest/lib/index.d.ts</title>
<path fill="none" stroke="#757575" d="M154.15,-343.71C164.45,-318.59 191.73,-260.86 234.5,-232.83 252.02,-221.36 365.05,-201.37 444.8,-188.37"/>
<polygon fill="#757575" stroke="#757575" points="445.02,-191.89 454.33,-186.83 443.9,-184.98 445.02,-191.89"/>
</g>
<!-- client/Client.ts&#45;&gt;../../types/dist/index.d.ts -->
<g id="edge44" class="edge">
<title>client/Client.ts&#45;&gt;../../types/dist/index.d.ts</title>
<path fill="none" stroke="#757575" d="M198.94,-351.52C270.7,-345.64 407.89,-335.83 524.88,-335.83 524.88,-335.83 524.88,-335.83 735.25,-335.83 894.33,-335.83 1079.71,-335.83 1187,-335.83"/>
<polygon fill="#757575" stroke="#757575" points="1186.9,-339.33 1196.9,-335.83 1186.9,-332.33 1186.9,-339.33"/>
</g>
<!-- client/Client.ts&#45;&gt;../package.json -->
<g id="edge45" class="edge">
<title>client/Client.ts&#45;&gt;../package.json</title>
<path fill="none" stroke="#757575" d="M158.74,-343.55C172.97,-325.56 202,-292.3 234.5,-274.83 243.18,-270.17 252.86,-266.54 262.59,-263.71"/>
<polygon fill="#757575" stroke="#757575" points="263.29,-267.14 272.08,-261.23 261.52,-260.37 263.29,-267.14"/>
</g>
<!-- client/CommandManager.ts -->
<g id="node31" class="node">
<title>client/CommandManager.ts</title>
<path fill="none" stroke="#c6c5fe" d="M410.58,-387.71C410.58,-387.71 243.92,-387.71 243.92,-387.71 239.96,-387.71 236,-383.75 236,-379.79 236,-379.79 236,-371.88 236,-371.88 236,-367.92 239.96,-363.96 243.92,-363.96 243.92,-363.96 410.58,-363.96 410.58,-363.96 414.54,-363.96 418.5,-367.92 418.5,-371.88 418.5,-371.88 418.5,-379.79 418.5,-379.79 418.5,-383.75 414.54,-387.71 410.58,-387.71"/>
<text text-anchor="middle" x="327.25" y="-370.41" font-family="Arial" font-size="14.00" fill="#c6c5fe">client/CommandManager.ts</text>
</g>
<!-- client/Client.ts&#45;&gt;client/CommandManager.ts -->
<g id="edge46" class="edge">
<title>client/Client.ts&#45;&gt;client/CommandManager.ts</title>
<path fill="none" stroke="#757575" d="M198.73,-361.4C206.85,-362.32 215.52,-363.3 224.37,-364.31"/>
<polygon fill="#757575" stroke="#757575" points="223.82,-367.77 234.15,-365.41 224.61,-360.81 223.82,-367.77"/>
</g>
<!-- client/MessageManager.ts -->
<g id="node32" class="node">
<title>client/MessageManager.ts</title>
<path fill="none" stroke="#c6c5fe" d="M406.46,-307.71C406.46,-307.71 248.04,-307.71 248.04,-307.71 244.08,-307.71 240.12,-303.75 240.12,-299.79 240.12,-299.79 240.12,-291.88 240.12,-291.88 240.12,-287.92 244.08,-283.96 248.04,-283.96 248.04,-283.96 406.46,-283.96 406.46,-283.96 410.42,-283.96 414.38,-287.92 414.38,-291.88 414.38,-291.88 414.38,-299.79 414.38,-299.79 414.38,-303.75 410.42,-307.71 406.46,-307.71"/>
<text text-anchor="middle" x="327.25" y="-290.41" font-family="Arial" font-size="14.00" fill="#c6c5fe">client/MessageManager.ts</text>
</g>
<!-- client/Client.ts&#45;&gt;client/MessageManager.ts -->
<g id="edge47" class="edge">
<title>client/Client.ts&#45;&gt;client/MessageManager.ts</title>
<path fill="none" stroke="#757575" d="M177.94,-343.59C194.32,-336.76 215.39,-328.34 234.5,-321.83 245.31,-318.15 256.96,-314.56 268.21,-311.29"/>
<polygon fill="#757575" stroke="#757575" points="269.17,-314.65 277.83,-308.54 267.25,-307.92 269.17,-314.65"/>
</g>
<!-- client/WebsocketManager.ts -->
<g id="node33" class="node">
<title>client/WebsocketManager.ts</title>
<path fill="none" stroke="#c6c5fe" d="M412.08,-467.71C412.08,-467.71 242.42,-467.71 242.42,-467.71 238.46,-467.71 234.5,-463.75 234.5,-459.79 234.5,-459.79 234.5,-451.88 234.5,-451.88 234.5,-447.92 238.46,-443.96 242.42,-443.96 242.42,-443.96 412.08,-443.96 412.08,-443.96 416.04,-443.96 420,-447.92 420,-451.88 420,-451.88 420,-459.79 420,-459.79 420,-463.75 416.04,-467.71 412.08,-467.71"/>
<text text-anchor="middle" x="327.25" y="-450.41" font-family="Arial" font-size="14.00" fill="#c6c5fe">client/WebsocketManager.ts</text>
</g>
<!-- client/Client.ts&#45;&gt;client/WebsocketManager.ts -->
<g id="edge48" class="edge">
<title>client/Client.ts&#45;&gt;client/WebsocketManager.ts</title>
<path fill="none" stroke="#757575" d="M160.34,-368.19C175.4,-384.61 204.22,-413.44 234.5,-429.83 241.61,-433.68 249.34,-437.01 257.2,-439.87"/>
<polygon fill="#757575" stroke="#757575" points="255.92,-443.13 266.52,-443.01 258.16,-436.5 255.92,-443.13"/>
</g>
<!-- utils/Logger.ts -->
<g id="node34" class="node">
<title>utils/Logger.ts</title>
<path fill="none" stroke="#cfffac" d="M567.58,-425.71C567.58,-425.71 484.17,-425.71 484.17,-425.71 480.21,-425.71 476.25,-421.75 476.25,-417.79 476.25,-417.79 476.25,-409.88 476.25,-409.88 476.25,-405.92 480.21,-401.96 484.17,-401.96 484.17,-401.96 567.58,-401.96 567.58,-401.96 571.54,-401.96 575.5,-405.92 575.5,-409.88 575.5,-409.88 575.5,-417.79 575.5,-417.79 575.5,-421.75 571.54,-425.71 567.58,-425.71"/>
<text text-anchor="middle" x="525.88" y="-408.41" font-family="Arial" font-size="14.00" fill="#cfffac">utils/Logger.ts</text>
</g>
<!-- client/Client.ts&#45;&gt;utils/Logger.ts -->
<g id="edge49" class="edge">
<title>client/Client.ts&#45;&gt;utils/Logger.ts</title>
<path fill="none" stroke="#757575" d="M169.25,-368.12C185.95,-377.82 210.87,-390.7 234.5,-396.83 312.06,-416.96 405.03,-418.67 464.51,-417.06"/>
<polygon fill="#757575" stroke="#757575" points="464.54,-420.56 474.43,-416.75 464.32,-413.56 464.54,-420.56"/>
</g>
<!-- client/CommandManager.ts&#45;&gt;../../types/dist/index.d.ts -->
<g id="edge50" class="edge">
<title>client/CommandManager.ts&#45;&gt;../../types/dist/index.d.ts</title>
<path fill="none" stroke="#757575" d="M418.77,-375.5C571.21,-374.38 888.74,-369.64 1156.5,-349.83 1166.47,-349.1 1176.9,-348.15 1187.25,-347.09"/>
<polygon fill="#757575" stroke="#757575" points="1187.36,-350.6 1196.94,-346.07 1186.62,-343.64 1187.36,-350.6"/>
</g>
<!-- client/CommandManager.ts&#45;&gt;utils/Logger.ts -->
<g id="edge51" class="edge">
<title>client/CommandManager.ts&#45;&gt;utils/Logger.ts</title>
<path fill="none" stroke="#757575" d="M392.09,-388.17C415.51,-392.7 441.91,-397.8 464.97,-402.26"/>
<polygon fill="#757575" stroke="#757575" points="464.03,-405.64 474.51,-404.1 465.35,-398.77 464.03,-405.64"/>
</g>
<!-- client/MessageManager.ts&#45;&gt;../../rest/lib/index.d.ts -->
<g id="edge52" class="edge">
<title>client/MessageManager.ts&#45;&gt;../../rest/lib/index.d.ts</title>
<path fill="none" stroke="#757575" d="M399.27,-283.62C406.47,-281.2 413.51,-278.3 420,-274.83 456.52,-255.32 489.62,-219.7 508.48,-196.93"/>
<polygon fill="#757575" stroke="#757575" points="511.15,-199.2 514.71,-189.22 505.7,-194.8 511.15,-199.2"/>
</g>
<!-- client/MessageManager.ts&#45;&gt;../../types/dist/index.d.ts -->
<g id="edge53" class="edge">
<title>client/MessageManager.ts&#45;&gt;../../types/dist/index.d.ts</title>
<path fill="none" stroke="#757575" d="M414.82,-296.14C565.67,-297.2 886.41,-301.86 1156.5,-321.83 1166.47,-322.57 1176.9,-323.52 1187.25,-324.58"/>
<polygon fill="#757575" stroke="#757575" points="1186.62,-328.03 1196.94,-325.6 1187.36,-321.07 1186.62,-328.03"/>
</g>
<!-- client/WebsocketManager.ts&#45;&gt;../../types/dist/index.d.ts -->
<g id="edge54" class="edge">
<title>client/WebsocketManager.ts&#45;&gt;../../types/dist/index.d.ts</title>
<path fill="none" stroke="#757575" d="M420.24,-449.38C471.87,-445.56 537.44,-440.4 595.75,-434.83 845.41,-411.02 910.8,-422.1 1156.5,-371.83 1181.36,-366.75 1208.48,-358.81 1230.63,-351.68"/>
<polygon fill="#757575" stroke="#757575" points="1231.54,-355.07 1239.96,-348.63 1229.36,-348.41 1231.54,-355.07"/>
</g>
<!-- client/WebsocketManager.ts&#45;&gt;../../ws/lib/index.d.ts -->
<g id="edge55" class="edge">
<title>client/WebsocketManager.ts&#45;&gt;../../ws/lib/index.d.ts</title>
<path fill="none" stroke="#757575" d="M392.09,-468.17C410.55,-471.74 430.88,-475.67 449.96,-479.35"/>
<polygon fill="#757575" stroke="#757575" points="449.05,-482.74 459.53,-481.21 450.38,-475.87 449.05,-482.74"/>
</g>
<!-- client/WebsocketManager.ts&#45;&gt;utils/Logger.ts -->
<g id="edge56" class="edge">
<title>client/WebsocketManager.ts&#45;&gt;utils/Logger.ts</title>
<path fill="none" stroke="#757575" d="M386.18,-443.46C410.94,-438.17 439.83,-432 464.81,-426.66"/>
<polygon fill="#757575" stroke="#757575" points="465.46,-430.1 474.51,-424.59 464,-423.26 465.46,-430.1"/>
</g>
<!-- index.ts -->
<g id="node35" class="node">
<title>index.ts</title>
<path fill="none" stroke="#c6c5fe" d="M54.58,-447.71C54.58,-447.71 7.92,-447.71 7.92,-447.71 3.96,-447.71 0,-443.75 0,-439.79 0,-439.79 0,-431.88 0,-431.88 0,-427.92 3.96,-423.96 7.92,-423.96 7.92,-423.96 54.58,-423.96 54.58,-423.96 58.54,-423.96 62.5,-427.92 62.5,-431.88 62.5,-431.88 62.5,-439.79 62.5,-439.79 62.5,-443.75 58.54,-447.71 54.58,-447.71"/>
<text text-anchor="middle" x="31.25" y="-430.41" font-family="Arial" font-size="14.00" fill="#c6c5fe">index.ts</text>
</g>
<!-- index.ts&#45;&gt;../../rest/lib/index.d.ts -->
<g id="edge57" class="edge">
<title>index.ts&#45;&gt;../../rest/lib/index.d.ts</title>
<path fill="none" stroke="#757575" d="M37.45,-423.66C56.31,-381.27 125.84,-240.04 234.5,-189.83 300.36,-159.41 383.8,-158.73 444.32,-164"/>
<polygon fill="#757575" stroke="#757575" points="443.93,-167.47 454.22,-164.94 444.6,-160.51 443.93,-167.47"/>
</g>
<!-- index.ts&#45;&gt;../../types/dist/index.d.ts -->
<g id="edge58" class="edge">
<title>index.ts&#45;&gt;../../types/dist/index.d.ts</title>
<path fill="none" stroke="#757575" d="M49.49,-448.18C62.44,-456.97 80.9,-468.47 98.5,-475.83 194.86,-516.15 221.8,-533.83 326.25,-533.83 326.25,-533.83 326.25,-533.83 735.25,-533.83 943.48,-533.83 1170.84,-402.93 1248.56,-354"/>
<polygon fill="#757575" stroke="#757575" points="1250.27,-357.06 1256.83,-348.73 1246.51,-351.15 1250.27,-357.06"/>
</g>
<!-- index.ts&#45;&gt;../../ws/lib/index.d.ts -->
<g id="edge59" class="edge">
<title>index.ts&#45;&gt;../../ws/lib/index.d.ts</title>
<path fill="none" stroke="#757575" d="M62.86,-443.45C102.28,-452.93 173.04,-468.85 234.5,-476.83 306.21,-486.15 388.56,-490.37 447.2,-492.27"/>
<polygon fill="#757575" stroke="#757575" points="446.99,-495.76 457.09,-492.57 447.2,-488.77 446.99,-495.76"/>
</g>
<!-- index.ts&#45;&gt;client/Client.ts -->
<g id="edge60" class="edge">
<title>index.ts&#45;&gt;client/Client.ts</title>
<path fill="none" stroke="#757575" d="M49.75,-423.68C68.54,-410.64 98.62,-389.77 120.45,-374.61"/>
<polygon fill="#757575" stroke="#757575" points="122.37,-377.54 128.59,-368.96 118.38,-371.79 122.37,-377.54"/>
</g>
</g>
</svg>
