<?xml version="1.0" encoding="UTF-8" standalone="no"?><!-- Generator: Gravit.io --><svg xmlns="http://www.w3.org/2000/svg" xmlns:xlink="http://www.w3.org/1999/xlink" style="isolation:isolate" viewBox="0 0 1024 1024" width="1024pt" height="1024pt"><defs><clipPath id="_clipPath_7wjt83dI8WW0Am7RCAEgX0BJihdV1hsY"><rect width="1024" height="1024"/></clipPath></defs><g clip-path="url(#_clipPath_7wjt83dI8WW0Am7RCAEgX0BJihdV1hsY)"><path d=" M 252.543 2.312 C 114.336 2.312 2.128 114.522 2.128 252.729 L 2.128 773.994 C 2.128 912.201 114.336 1024.411 252.543 1024.411 L 773.81 1024.411 C 912.017 1024.411 1024.225 912.201 1024.225 773.994 L 1024.225 252.729 C 1024.225 114.522 912.017 2.312 773.81 2.312 L 252.543 2.312 L 252.543 2.312 Z  M 732.584 271.575 C 756.269 272.601 778.551 286.278 789.355 309.115 C 794.627 320.258 795.194 323.549 795.188 342.921 C 795.157 452.997 723.281 557.322 618.302 599.652 C 510.155 643.258 391.009 617.117 308.64 531.712 C 282.166 504.259 266.373 480.211 251.601 444.84 C 238.768 414.112 232.983 387.727 231.649 353.847 C 230.664 328.802 231.031 323.459 234.365 314.077 C 239.794 298.809 255.236 282.865 270.924 276.332 C 281.174 272.064 285.704 271.353 298.517 271.982 C 317.414 272.91 329.903 278.134 341.885 290.125 C 355.342 303.589 360.016 315.481 362.117 341.642 C 367.026 402.717 396.575 447.431 448.747 472.741 C 490.706 493.096 535.556 493.096 577.517 472.741 C 630.134 447.217 659.269 402.63 664.285 339.957 C 666.837 308.078 677.775 289.396 700.365 278.345 C 710.765 273.258 721.82 271.107 732.584 271.574 L 732.584 271.574 L 732.584 271.575 Z  M 432.908 667.943 C 433.75 667.961 444.481 669.801 456.755 672.031 C 473.211 675.023 488.022 676.09 513.13 676.09 C 538.238 676.09 553.05 675.023 569.505 672.031 C 581.781 669.801 592.512 667.962 593.358 667.943 C 594.202 667.927 594.89 683.383 594.89 702.29 C 594.89 741.573 592.699 752.237 581.015 769.839 C 566.441 791.798 543.612 802.818 512.683 802.818 C 483.425 802.818 461.835 792.773 446.664 772.106 C 434.122 755.017 431.37 742.504 431.37 702.478 C 431.37 683.468 432.066 667.926 432.908 667.943 L 432.908 667.943 L 432.908 667.943 Z " fill="rgb(59,111,255)"/></g></svg>